<?xml version="1.0" encoding="UTF-8" standalone="no"?>
<!DOCTYPE svg PUBLIC "-//W3C//DTD SVG 1.0//EN" "http://www.w3.org/TR/2001/REC-SVG-20010904/DTD/svg10.dtd">
<!-- Created with Inkscape (http://www.inkscape.org/) -->
<svg
   xmlns:svg="http://www.w3.org/2000/svg"
   xmlns="http://www.w3.org/2000/svg"
   xmlns:xlink="http://www.w3.org/1999/xlink"
   version="1.0"
   width="800"
   height="330"
   id="svg2"
   xml:space="preserve"><defs
     id="defs5"><linearGradient
       id="linearGradient7022"><stop
         id="stop7024"
         style="stop-color:#ce0008;stop-opacity:1"
         offset="0" /><stop
         id="stop7032"
         style="stop-color:#dd6e25;stop-opacity:1"
         offset="0.4411315" /><stop
         id="stop7034"
         style="stop-color:#fece33;stop-opacity:1"
         offset="0.53618556" /><stop
         id="stop7030"
         style="stop-color:#da171f;stop-opacity:1"
         offset="0.76717293" /><stop
         id="stop7026"
         style="stop-color:#c91116;stop-opacity:1"
         offset="1" /></linearGradient><clipPath
       id="clipPath19"><path
         d="M 0,0 L 193,0 L 193,193 L 0,193 L 0,0 z"
         id="path21" /></clipPath><clipPath
       id="clipPath85"><path
         d="M 0,0 L 193,0 L 193,193 L 0,193 L 0,0 z"
         id="path87" /></clipPath><clipPath
       id="clipPath91"><path
         d="M 81.5,95.4 C 81.5,104.8 93,103.9 93,103.9 L 92.9,111.8 C 92.9,111.8 89.5,112.7 83.9,109.6 C 78.3,106.6 77.6,103.9 77.6,103.9 L 79,110.5 L 70.7999,108.8 C 70.7999,108.8 68.2,87.6 62.6,88.6 C 57.1,89.5 67.5,110.2 67.5,110.2 L 60,109.1 L 56.9,101 C 56.9,101 56.2,107.4 46.3,113.6 C 36.5,119.7 24.7,114.9 24.7,114.9 L 19.8,101.8 C 19.8,101.8 44.6,109.6 46.8,95.5 C 45.4,83.5 31.1,78.8 31.1,78.8 L 38.7,103.3 L 29.2,101 L 20.5,76.9 L 16.6,76.8 L 12.3,77.5 L 12.4,65.2 C 12.4,65.2 15.5,64.4 19.2,64.4 C 40.9,64.4 54.8,86.8 54.8,86.8 C 54.8,86.8 54.3,79.7 60.9,79.7 C 67.5,79.7 74.2,93.3 74.2,93.3 C 74.2,93.3 73.9,89.2 76.5,86.5 C 79,83.8 85.2,84.1 85.2,84.1 L 90,93.8 C 90,93.8 81.9,90.3 81.5,95.4 z"
         id="path93" /></clipPath><clipPath
       id="clipPath1127"><path
         d="M 0,0 L 193,0 L 193,193 L 0,193 L 0,0 z"
         id="path1129" /></clipPath><clipPath
       id="clipPath1133"><path
         d="M 184.2,111.4 L 182.6,116.9 C 182.6,116.9 173.7,116.8 170.6,112.8 C 170.4,112.6 170.3,112.4 170.2,112.2 L 170.4,116.4 L 158.7,116.1 L 156,110.6 L 158.1,110.3 L 154.8,102.6 L 150.0999,102 L 156.5,116.4 L 148.4,115.7 L 143.5,102.2 L 144.4,115.3 L 133.7,115 L 122.2,97.7 L 127.4,117.6 L 137.3,117.6 L 144.8,127.2 L 124.3,127.7 L 104.7,127 L 100.8,118.1 L 119.1,117.7 L 109.9,93.6 C 109.3,94.1 108.7,94.8 108.1,95.5 C 105.8,98.3 104.7,100.6 104.7,100.6 L 113.4,108 L 107.7,113.6 L 101.1,106.5 L 103.2,113.2 L 95.8,112.1 L 88,87.3 L 96.7,88.7 L 98.6,96.7 C 98.6,96.7 99,94.4 100.7,91.9 C 102.3,89.5 104.4,87.5 104.4,87.5 L 108.2,89.1 L 104.6,79.8 L 118.4,82 L 121.4,94.4 L 130,94.1 L 131.9,98.8 L 136.5999,99.2 L 136.5999,93.8 L 142.7,95.2 L 142.8,96 L 152.0999,96.2 L 163.5,96.2 L 166.5,101.1 L 160.4,101.2 L 162,104.4 L 165.9,104.4 L 168.3,108.3 L 164,108.4 L 165.4,111.6 L 169.8,111.5 C 168.1,108.3 170.7,106.7 171.2,104.5 C 171.8,102.1 167.1,103.2 167.1,103.2 L 167.3,97 C 167.3,97 169.2,96.4 171.3,96.3 C 173.4,96.2 179.2,96.4 178.7,101.4 C 178.3,106.4 175.8,105.4 176.3,108.6 C 176.8,111.8 184.2,111.4 184.2,111.4 z M 137.7,103.9 L 134.5999,103.9 L 137.9,110.1 L 137.7,103.9 z"
         id="path1135" /></clipPath><clipPath
       id="clipPath2169"><path
         d="M 0,0 L 193,0 L 193,193 L 0,193 L 0,0 z"
         id="path2171" /></clipPath><linearGradient
       x1="13.068234"
       y1="96.055504"
       x2="182.97945"
       y2="113.60096"
       id="linearGradient7028"
       xlink:href="#linearGradient7022"
       gradientUnits="userSpaceOnUse"
       gradientTransform="matrix(3.568943,0,0,3.568943,-26.849002,-281.23556)" /></defs><g
     transform="matrix(1.25,0,0,-1.25,0,241.25)"
     id="g11"><g
       id="g13" /><path
       d="M 56.307369,113.84642 L 40.247126,108.493 L 23.473094,64.951898 L 65.229727,75.658727 L 37.035077,-7.497645 L 48.812589,-7.8545393 L 78.077922,78.870775 L 110.9122,87.793133 L 112.33977,86.72245 L 109.48462,75.301832 C 109.48462,75.301832 128.75691,66.022581 128.04312,51.03302 C 127.68623,36.04346 119.12077,22.124582 119.12077,22.124582 C 119.12077,22.124582 142.67579,42.824451 140.17753,58.5278 C 137.67927,111.34816 45.60054,82.796613 45.60054,82.796613 L 56.307369,113.84642 z"
       id="path25"
       style="fill:#000000;fill-opacity:1;fill-rule:evenodd;stroke:none" /><path
       d="M 17.048996,-21.059628 L 3.487013,-16.776897 L 4.5576959,-59.604213 C 4.5576959,-59.604213 11.338688,-62.459367 26.685142,-63.173156 C 99.491223,-63.173156 136.25169,-10.352799 136.25169,-10.352799 C 136.25169,-10.352799 89.141645,-51.038749 42.745386,-51.038749 C 29.897191,-51.038749 18.476574,-47.826701 18.476574,-47.826701 L 17.048996,-21.059628 z"
       id="path27"
       style="fill:#000000;fill-opacity:1;fill-rule:evenodd;stroke:none" /><path
       d="M 181.57727,97.072385 L 169.44286,94.931019 L 172.65491,87.793133 C 172.65491,87.793133 175.28841,99.682924 176.09207,83.373318 C 176.18164,81.555691 178.72211,87.436239 178.72211,87.436239 L 181.57727,97.072385 z"
       id="path29"
       style="fill:#000000;fill-opacity:1;fill-rule:evenodd;stroke:none" /><path
       d="M 169.44286,29.262468 L 161.94808,16.057379 C 161.94808,16.057379 165.16013,-1.7873362 182.29106,-1.7873362 C 190.14273,-1.7873362 204.7754,6.4212327 204.7754,6.4212327 C 204.7754,6.4212327 195.49615,3.5660783 190.85652,3.5660783 C 171.58423,3.5660783 169.44286,29.262468 169.44286,29.262468 z"
       id="path31"
       style="fill:#000000;fill-opacity:1;fill-rule:evenodd;stroke:none" /><path
       d="M 224.40458,98.499962 L 214.05465,94.931019 C 214.05465,94.931019 202.99093,49.248549 196.92372,50.676126 C 194.42546,51.03302 195.13925,58.884695 195.13925,58.884695 C 195.13925,58.884695 187.64447,41.03998 197.99441,35.329671 C 211.55603,30.690045 224.40458,98.499962 224.40458,98.499962 z"
       id="path33"
       style="fill:#000000;fill-opacity:1;fill-rule:evenodd;stroke:none" /><path
       d="M 237.25278,48.53476 L 231.18522,34.258988 C 231.18522,34.258988 227.61628,28.905574 239.03725,17.484956 C 250.81476,6.0643384 266.16122,11.417753 266.16122,11.417753 L 267.94569,18.555639 C 267.94569,18.555639 252.24234,20.34011 245.10445,28.905574 C 237.96657,37.827931 237.25278,48.53476 237.25278,48.53476 z"
       id="path35"
       style="fill:#000000;fill-opacity:1;fill-rule:evenodd;stroke:none" /><path
       d="M 311.48679,107.77921 L 294.71276,53.53128 L 284.00593,51.389914 L 292.92829,80.298353 C 292.92829,80.298353 288.64556,80.298353 282.57835,80.298353 C 276.86805,80.298353 270.80084,74.588044 270.80084,74.588044 C 270.80084,74.588044 281.15078,91.005182 297.92481,91.005182 C 301.85065,91.005182 303.99201,89.577604 303.99201,89.577604 L 306.84717,108.13611 L 311.48679,107.77921 z"
       id="path37"
       style="fill:#000000;fill-opacity:1;fill-rule:evenodd;stroke:none" /><path
       d="M 292.5714,46.0365 L 279.7232,21.410793 L 307.91785,26.050419 L 309.34543,33.545199 L 287.93177,29.619362 L 292.5714,46.0365 z"
       id="path39"
       style="fill:#000000;fill-opacity:1;fill-rule:evenodd;stroke:none" /><path
       d="M 341.46591,114.9171 L 345.74865,112.77573 L 335.75561,100.64133 L 341.46591,114.9171 z"
       id="path43"
       style="fill:#000000;fill-opacity:1;fill-rule:evenodd;stroke:none" /><path
       d="M 340.39523,159.17199 L 330.75909,159.52889 L 316.84021,129.54977 L 381.43807,128.83598 L 375.01397,110.27747 L 378.58291,104.92406 L 369.30366,94.931019 L 356.81236,64.595003 L 366.4485,54.958857 L 397.49831,138.47212 L 332.18666,139.8997 L 340.39523,159.17199 z"
       id="path45"
       style="fill:#000000;fill-opacity:1;fill-rule:evenodd;stroke:none" /><path
       d="M 430.33223,138.11523 L 427.47743,129.19287 L 448.53419,129.19287 L 454.6014,138.47212 L 430.33223,138.11523 z"
       id="path47"
       style="fill:#000000;fill-opacity:1;fill-rule:evenodd;stroke:none" /><path
       d="M 444.96525,121.69809 L 437.82736,121.69809 L 417.48439,94.931019 L 409.98961,68.520841 L 444.96525,121.69809 z"
       id="path49"
       style="fill:#000000;fill-opacity:1;fill-rule:evenodd;stroke:none" /><path
       d="M 407.49135,55.672646 C 407.49135,55.672646 404.63619,47.464077 406.06377,47.464077 C 407.49135,47.464077 423.90849,47.107183 423.90849,47.107183 L 427.47743,55.315752 L 407.49135,55.672646 z"
       id="path51"
       style="fill:#000000;fill-opacity:1;fill-rule:evenodd;stroke:none" /><path
       d="M 445.32214,70.662207 L 442.1101,63.881215 L 452.46003,63.524321 L 452.46003,45.322711 L 474.23058,51.03302 L 474.23058,54.958857 L 504.5666,56.743329 L 505.28003,53.53128 L 545.96634,55.315752 C 545.96634,55.315752 549.89217,60.312272 548.4646,60.669166 C 547.03702,61.02606 516.701,60.312272 516.701,60.312272 L 515.98686,62.453638 L 483.15294,62.096743 C 483.15294,62.096743 483.50983,58.5278 482.79605,58.5278 C 481.72536,58.5278 460.66824,54.958857 460.66824,54.958857 L 461.02549,73.160467 L 445.32214,70.662207 z"
       id="path53"
       style="fill:#000000;fill-opacity:1;fill-rule:evenodd;stroke:none" /><path
       d="M 464.59444,109.56369 L 453.88761,89.577604 L 464.23719,89.577604 L 464.59444,109.56369 z"
       id="path55"
       style="fill:#000000;fill-opacity:1;fill-rule:evenodd;stroke:none" /><path
       d="M 332.90045,140.25659 L 346.81933,172.02019 L 416.7706,174.51845 L 489.93393,172.73398 L 463.16686,138.47212 L 427.83432,138.47212 L 409.27582,67.450158 L 450.31866,129.19287 L 488.50635,130.26355 L 485.29431,83.510401 L 502.78213,131.69113 L 531.69056,134.18939 L 508.84897,82.796613 L 528.12162,85.294873 L 515.98686,62.096743 L 482.79605,61.382955 L 482.43915,58.5278 L 460.66824,53.53128 L 460.66824,72.803572 L 443.89457,71.375995 L 437.11358,54.601963 L 406.42067,55.672646 L 395.71384,11.417753 L 346.46243,3.5660783 L 398.2121,138.82902 L 332.90045,140.25659 z"
       id="path73"
       style="fill:#ffffff;stroke:#000000;stroke-width:6.42409706;stroke-linecap:butt;stroke-linejoin:miter;stroke-miterlimit:2.61310005;stroke-dasharray:none;stroke-opacity:1" /><path
       d="M 315.05574,118.84294 L 287.21798,30.333151 L 318.26778,35.329671 L 325.04878,63.881215 C 325.04878,63.881215 326.47635,55.672646 332.54356,46.750288 C 338.25387,38.184825 345.74865,31.046939 345.74865,31.046939 L 375.37086,43.53824 C 375.37086,43.53824 367.16229,49.605443 358.95372,59.598483 C 350.74516,69.591524 346.81933,77.800093 346.81933,77.800093 L 377.86912,104.21027 L 357.52615,124.19635 L 333.97113,98.856856 L 341.46591,122.76877 L 315.05574,118.84294 z"
       id="path71"
       style="fill:#ffffff;stroke:#000000;stroke-width:6.42409706;stroke-linecap:butt;stroke-linejoin:miter;stroke-miterlimit:2.61310005;stroke-dasharray:none;stroke-opacity:1" /><path
       d="M 325.40567,61.02606 C 325.40567,59.955378 323.6212,49.605443 323.6212,49.605443 C 323.6212,49.605443 325.40567,43.895134 331.11598,36.400354 C 337.18318,28.548679 341.10902,25.693525 341.10902,25.693525 L 327.19014,-9.6390108 L 379.65359,-1.0735476 L 382.50875,9.2763871 L 346.81933,3.5660783 L 355.02789,27.121102 L 370.73124,31.760728 L 365.73472,38.184825 L 345.39175,31.403834 C 345.39175,31.403834 338.25387,40.326191 334.32803,46.393394 C 330.40219,52.460597 325.40567,61.02606 325.40567,61.02606 z"
       id="path41"
       style="fill:#000000;fill-opacity:1;fill-rule:evenodd;stroke:none" /><path
       d="M 489.57704,123.83946 L 499.21318,123.48256 L 485.29431,84.581084 L 489.57704,123.83946 z"
       id="path57"
       style="fill:#000000;fill-opacity:1;fill-rule:evenodd;stroke:none" /><path
       d="M 529.5492,125.98082 L 535.9733,125.98082 L 529.90609,112.77573 L 537.75777,113.13263 L 525.26647,84.937978 L 517.77133,85.294873 L 527.76473,108.13611 L 520.62684,108.8499 L 529.5492,125.98082 z"
       id="path59"
       style="fill:#000000;fill-opacity:1;fill-rule:evenodd;stroke:none" /><path
       d="M 564.52484,115.98778 L 562.38347,112.06195 L 573.4472,112.06195 C 573.4472,112.06195 571.30583,109.20679 571.66273,103.85338 C 572.01962,98.143068 581.29887,88.506921 581.29887,88.506921 L 584.15403,92.789653 C 584.15403,92.789653 576.65925,105.99474 576.65925,109.56369 C 576.65925,113.48952 579.5144,117.05847 579.5144,117.05847 L 564.52484,115.98778 z"
       id="path61"
       style="fill:#000000;fill-opacity:1;fill-rule:evenodd;stroke:none" /><path
       d="M 569.16447,79.584564 L 562.02658,70.305312 L 563.09726,58.5278 C 563.09726,58.5278 568.45068,54.958857 579.8713,54.958857 C 591.64881,54.958857 600.92806,65.665686 600.92806,65.665686 C 600.92806,65.665686 593.07638,62.096743 584.51092,62.096743 C 575.94546,62.096743 570.59204,64.951898 570.59204,64.951898 L 569.16447,79.584564 z"
       id="path63"
       style="fill:#000000;fill-opacity:1;fill-rule:evenodd;stroke:none" /><path
       d="M 624.48308,115.27399 L 624.12619,109.56369 C 624.12619,109.56369 619.48656,110.27747 614.13315,109.56369 C 608.42284,108.8499 603.42632,104.92406 603.42632,104.92406 C 603.42632,104.92406 603.06942,111.70505 610.20731,114.56021 C 617.3452,117.41536 624.48308,115.27399 624.48308,115.27399 z"
       id="path65"
       style="fill:#000000;fill-opacity:1;fill-rule:evenodd;stroke:none" /><path
       d="M 559.88521,89.577604 L 557.03006,84.937978 L 549.89217,84.937978 L 552.74733,89.577604 L 559.88521,89.577604 z"
       id="path67"
       style="fill:#000000;fill-opacity:1;fill-rule:evenodd;stroke:none" /><path
       d="M 41.630091,-54.607692 C 27.962003,-54.607692 16.64749,-51.596397 16.64749,-51.596397 L 14.193842,-51.038749 L 14.193842,-48.585101 L 13.859254,-4.6424906 L 13.859254,-0.85048866 L 17.539726,-1.5196655 L 32.819263,-3.9733138 L 32.930793,-3.9733138 L 44.08374,-3.6387254 L 74.308225,80.342964 L 74.977402,81.904377 L 76.650344,82.350495 L 92.822117,86.254026 C 91.576035,86.258737 90.389247,86.513203 89.141645,86.477085 C 66.617517,85.824861 44.752916,79.004611 44.752916,79.004611 L 38.507266,76.99708 L 40.849385,83.242731 L 58.247982,129.97358 L 58.805629,131.31193 L 60.143983,131.75805 C 60.143983,131.75805 103.51116,149.74359 140.11061,126.96228 C 158.16937,115.65277 168.04087,103.98564 173.34639,95.064854 C 174.92917,92.403565 175.47944,90.614025 176.35769,88.484616 L 184.27628,109.2291 L 184.94546,111.01357 L 186.84146,111.34816 L 213.60853,115.25169 L 219.74265,116.14392 L 216.95442,110.56745 C 216.95442,110.56745 207.7426,92.276725 201.0057,73.651196 C 197.63725,64.338432 194.8696,54.953647 194.2024,48.110948 C 193.8688,44.689616 194.06853,41.866904 194.64852,40.303885 C 195.22851,38.740867 195.69639,38.414879 197.10217,38.184825 C 198.61254,37.91512 199.90086,38.197673 201.56335,39.523179 C 203.22583,40.848684 205.08941,43.253581 206.80523,46.326477 C 210.23689,52.472339 213.24289,61.431064 215.61606,70.528371 C 220.3624,88.723021 222.64242,107.44463 222.64242,107.44463 L 222.97701,109.78674 L 225.2076,110.23286 L 254.42832,116.25545 L 259.22408,117.25922 L 258.22032,112.46345 L 255.98973,102.20274 C 259.55247,105.47079 264.00673,109.02688 271.04621,112.79804 C 281.39547,118.52709 289.84699,120.53804 295.80575,121.16275 C 301.76451,121.78746 305.50881,120.82816 305.50881,120.82816 L 307.85093,120.27051 L 307.96246,117.81687 L 308.29705,89.59991 L 308.29705,86.142497 L 304.83964,86.365556 C 304.83964,86.365556 295.05658,87.054861 285.54504,83.911907 C 280.78927,82.34043 276.18232,79.840422 272.83068,75.993315 C 269.51618,72.188858 267.30385,67.07806 267.25421,59.486954 C 267.25793,59.439523 267.25018,59.42207 267.25421,59.375424 C 267.25407,59.33274 267.25421,59.306758 267.25421,59.263895 C 267.58166,55.798665 268.7413,54.515773 270.71162,53.575892 C 272.7341,52.611171 276.03362,52.408633 279.41092,52.795186 C 286.16551,53.568326 293.12904,56.475658 293.12904,56.475658 L 297.25563,52.126009 L 280.08009,17.440344 L 279.29939,15.767402 L 277.40339,15.655873 C 277.40339,15.655873 271.55224,15.453585 264.5775,16.436579 C 257.60276,17.419609 249.23384,19.414541 243.83302,25.247407 C 239.02578,30.239537 236.88728,36.25003 235.8029,41.30765 C 233.19103,36.820204 229.85386,31.294196 225.65371,25.581995 C 221.09264,19.378958 215.80508,13.10986 209.92806,8.2949278 C 204.05103,3.4800311 197.51381,0.041747086 190.52193,0.041747086 C 177.59263,0.041747086 170.58417,7.5159703 167.76992,14.652107 C 167.0036,16.59529 167.0015,18.227867 166.65463,20.005522 C 155.38121,3.681712 110.65901,-54.607692 41.630091,-54.607692 z M 41.630091,-48.138983 C 116.86571,-48.138983 165.98545,30.266233 165.98545,30.266233 L 171.89651,28.370232 C 171.89651,28.370232 171.61025,22.639366 173.79251,17.105756 C 175.97478,11.572145 179.89621,6.3989268 190.52193,6.3989268 C 195.30756,6.3989268 200.57016,9.0278816 205.80147,13.313754 C 211.03278,17.599662 216.16207,23.442664 220.52336,29.373997 C 229.24593,41.2367 235.13372,53.129774 235.13372,53.129774 L 241.15631,51.456832 C 241.15631,51.456832 240.45059,38.085502 248.51726,29.708586 C 252.03879,25.905342 259.15016,23.68446 265.46973,22.793759 C 270.8168,22.040141 273.99961,22.199066 275.28433,22.236111 L 288.11022,48.110948 C 285.63263,47.40626 283.06719,46.668381 280.08009,46.326477 C 276.05184,45.865405 271.83427,45.964015 268.03491,47.77636 C 264.23555,49.588705 261.2107,53.619433 260.7855,59.040836 L 260.7855,59.152365 L 260.7855,59.263895 C 260.7855,68.305848 263.69102,75.245407 268.03491,80.231435 C 272.3788,85.217462 278.03256,88.227009 283.53751,90.046028 C 291.70244,92.744006 298.22208,92.797862 301.82834,92.722735 L 301.49375,114.69404 C 300.46002,114.85496 299.95596,115.17053 296.47493,114.80557 C 291.36996,114.27037 283.80585,112.44471 274.16903,107.11004 L 274.0575,107.11004 C 264.36892,101.91972 259.14857,97.115605 256.32432,93.726501 C 254.91219,92.031966 254.085,90.679872 253.64761,89.822969 C 253.25081,89.045546 253.20749,88.96214 253.20149,88.930733 C 253.20088,88.927521 253.20149,88.819204 253.20149,88.819204 L 246.95584,90.269087 L 246.95584,90.380617 C 246.95584,90.380617 246.95488,90.488827 246.95584,90.492146 L 250.9709,109.00604 L 228.66501,104.3218 C 228.24784,101.09423 226.15604,85.744845 221.75018,68.855429 C 219.30537,59.483492 216.31093,50.240608 212.38171,43.203651 C 210.4171,39.685173 208.24883,36.633477 205.57841,34.504353 C 202.90799,32.375229 199.47303,31.205115 195.98688,31.827646 C 192.48536,32.400639 189.77325,34.981378 188.62593,38.073296 C 187.47861,41.16525 187.45946,44.712279 187.84522,48.668595 C 188.61675,56.581263 191.52596,66.21227 194.98311,75.770256 C 200.26967,90.386041 205.7257,102.08 208.58971,108.00227 L 189.6297,105.21404 L 179.25746,78.112375 L 173.01181,78.893081 C 173.01181,78.893081 172.54666,83.687278 167.76992,91.71897 C 162.99318,99.750662 153.92697,110.67941 136.6532,121.49734 C 104.79843,141.32531 67.120257,127.59406 63.712926,126.29311 L 48.991036,86.700144 C 55.814109,88.608672 70.348808,92.408062 88.918586,92.945794 C 96.457071,93.164107 104.0096,92.282613 111.22448,90.715205 L 115.23954,89.59991 C 117.90045,88.828555 120.7084,88.421624 123.15813,87.257791 C 133.29318,82.442752 141.23338,73.577926 143.34497,60.044601 L 143.4565,59.710013 L 143.34497,59.263895 C 138.0679,14.031897 85.126584,-3.081078 85.126584,-3.081078 L 79.215522,-4.977079 L 81.111523,0.93398283 L 106.54024,83.019672 L 79.773169,76.550962 L 49.325625,-7.8768452 L 48.544918,-9.8843756 L 46.425858,-9.9959051 L 32.484675,-10.330493 L 32.150086,-10.330493 L 31.927027,-10.330493 L 20.216433,-8.4344925 L 20.662551,-45.908394 C 23.562817,-46.568613 31.143748,-48.138983 41.630091,-48.138983 z M 89.253174,5.6182205 C 101.80932,11.036269 132.82681,27.326602 136.87626,59.486954 C 134.98989,70.880019 129.05591,77.384632 120.48143,81.458259 C 118.40982,82.442466 115.79546,82.789974 113.45507,83.46579 L 89.253174,5.6182205 z"
       id="path69"
       style="fill:#000000;fill-opacity:1;stroke:none;stroke-width:1.79999995;stroke-linecap:butt;stroke-linejoin:miter;stroke-miterlimit:2.61310005;stroke-dasharray:none;stroke-opacity:1" /><path
       d="M 539.54224,133.11871 L 529.90609,113.48952 L 537.40087,112.41884 L 515.98686,62.096743 L 556.67317,62.096743 L 567.37999,79.584564 L 545.60944,79.941458 L 551.31975,91.362076 L 565.23863,91.362076 L 573.80409,105.28095 L 558.45764,105.63785 L 563.45416,117.05847 L 580.22819,116.70157 L 581.29887,134.18939 L 539.54224,133.11871 z"
       id="path75"
       style="fill:none;stroke:#000000;stroke-width:6.42409706;stroke-linecap:butt;stroke-linejoin:miter;stroke-miterlimit:2.61310005;stroke-dasharray:none;stroke-opacity:1" /><path
       d="M 569.52136,87.079344 L 570.23515,64.951898 C 570.23515,64.951898 577.01614,62.810532 584.51092,62.453638 C 592.0057,62.096743 612.70557,62.810532 610.9211,80.655247 C 609.49352,98.499962 600.57116,94.931019 602.35564,106.35164 C 604.14011,117.77225 630.55029,116.34468 630.55029,116.34468 L 624.83998,135.97386 C 624.83998,135.97386 593.07638,135.61697 582.01266,121.3412 C 570.94894,106.70853 582.01266,100.64133 584.15403,91.71897 C 586.29539,83.153507 569.52136,87.079344 569.52136,87.079344 z"
       id="path77"
       style="fill:none;stroke:#000000;stroke-width:6.42409706;stroke-linecap:butt;stroke-linejoin:miter;stroke-miterlimit:2.61310005;stroke-dasharray:none;stroke-opacity:1" /><path
       d="M 465.30823,111.70505 L 453.53036,89.577604 L 464.59444,89.577604 L 465.30823,111.70505 z"
       id="path79"
       style="fill:none;stroke:#000000;stroke-width:6.42409706;stroke-linecap:butt;stroke-linejoin:miter;stroke-miterlimit:2.61310005;stroke-dasharray:none;stroke-opacity:1" /><path
       d="M 259.02333,163.81162 L 257.23886,162.74094 C 252.95613,157.74442 250.81476,152.7479 251.17166,148.46516 L 252.59923,145.25312 C 250.10097,139.54281 248.3165,134.90318 248.3165,131.69113 L 248.3165,129.90666 L 248.3165,126.69461 L 250.45787,124.19635 L 252.59923,123.83946 L 257.23886,141.68417 L 260.45091,141.68417 C 262.94917,142.04107 265.44743,143.82554 267.2319,145.61001 L 272.22842,153.10479 C 272.58531,155.60305 271.51463,158.4582 269.73016,161.31336 L 266.87501,162.02715 L 259.38023,155.60305 L 254.7406,149.89274 L 254.38371,152.03411 L 259.02333,163.81162 L 259.02333,163.81162 z M 197.63751,180.58565 L 194.78236,181.65633 L 194.06857,182.72702 L 186.57379,183.08355 C 184.78932,182.72702 182.29106,181.65633 180.50659,179.15807 L 178.36522,176.30292 C 177.29454,174.51845 177.65143,172.37708 179.7928,170.59261 L 179.7928,168.09435 L 181.22037,166.66677 L 183.00485,168.09435 L 188.71515,168.09435 L 192.64099,169.87882 L 198.3513,175.58913 C 199.06509,178.08739 199.06509,179.51461 197.63751,180.58565 L 197.63751,180.58565 z M 184.78932,179.15807 L 186.57379,179.51461 L 181.22037,173.44776 L 181.22037,175.58913 L 182.29106,177.01671 L 184.78932,179.15807 L 184.78932,179.15807 z M 118.40698,182.37012 L 119.83455,181.29908 L 123.4035,181.29908 L 124.11729,182.01323 L 122.68971,182.72702 L 120.90524,183.08355 L 122.68971,183.7977 C 131.25517,185.22528 140.17753,184.15459 149.09989,180.58565 C 161.94808,175.58913 170.15665,169.16503 173.72559,160.95646 L 174.08249,154.88926 L 171.22733,149.53585 C 165.16013,144.89622 157.30846,143.82554 147.67231,145.61001 L 147.31542,159.17199 L 149.09989,159.52889 L 161.94808,157.03063 L 161.23429,155.60305 L 159.80672,154.53237 L 159.44982,153.10479 L 162.66187,152.7479 L 165.87392,156.31684 L 164.80324,159.88578 C 161.23429,163.45472 155.52398,164.52541 148.0292,164.52541 L 147.31542,164.52541 L 147.31542,170.9495 L 145.88784,174.16155 L 144.46026,175.23224 L 143.03268,169.87882 L 142.3189,163.81162 L 134.82412,162.02715 C 131.96896,161.31336 129.82759,159.88578 128.40002,158.10131 L 128.04312,155.60305 C 130.54138,150.60653 135.5379,146.68069 142.3189,143.11175 L 143.74647,138.11523 L 146.60163,138.11523 L 147.31542,139.54281 L 147.67231,141.32728 C 158.02224,138.47212 166.9446,140.25659 174.08249,145.25312 C 179.4359,149.17895 181.22037,154.17547 180.14969,159.88578 C 178.00833,165.95298 173.72559,170.9495 168.01528,175.94567 C 151.24125,187.36664 135.8948,190.93559 121.26213,186.6525 C 119.47766,185.93907 118.40698,184.51149 118.40698,182.37012 L 118.40698,182.37012 z M 224.40458,167.38056 L 224.04733,165.95298 L 227.25974,151.32032 L 226.18906,150.24964 L 217.62359,162.38404 L 215.83912,161.67025 L 213.3405,152.391 L 212.98397,148.46516 C 212.62707,146.68069 212.98397,145.61001 213.3405,144.53933 L 215.83912,143.11175 L 217.2667,144.53933 L 217.98049,155.60305 L 221.54943,149.89274 L 225.8318,144.53933 L 228.68732,144.18243 L 230.47179,146.68069 L 231.54247,149.53585 C 231.89936,155.60305 230.47179,160.95646 227.25974,165.2392 L 226.18906,166.66677 L 224.40458,167.38056 L 224.40458,167.38056 z M 185.14621,163.81162 L 184.07553,162.74094 L 183.00485,148.10827 L 183.71863,145.25312 L 184.78932,143.11175 L 188.00137,143.82554 L 187.64447,161.31336 L 185.14621,163.81162 L 185.14621,163.81162 z M 196.20993,178.08739 C 196.20993,176.30292 195.49615,174.87534 193.35478,173.44776 L 190.85652,172.37708 L 184.78932,171.66329 C 187.28758,175.58913 189.78584,178.08739 193.35478,178.80118 L 196.20993,178.08739 L 196.20993,178.08739 z M 130.54138,157.38752 L 142.3189,159.17199 L 141.60511,147.39448 C 136.60859,149.17895 132.68275,152.03411 129.11381,155.60305 L 129.4707,156.67373 L 130.54138,157.38752 L 130.54138,157.38752 z M 284.00593,157.38752 L 282.22146,158.10131 L 289.00245,159.52889 L 295.42655,159.88578 L 300.06618,161.31336 L 300.06618,162.74094 L 290.43003,164.52541 L 281.15078,161.67025 C 278.65252,160.59957 277.93873,158.8151 278.29562,157.03063 L 280.08009,154.53237 L 291.85761,153.46168 L 294.71276,152.7479 L 295.78344,150.60653 L 293.99897,148.82206 L 289.35935,147.39448 L 281.50767,148.82206 C 281.15078,149.17895 281.15078,149.53585 281.86457,149.89274 C 282.57835,150.60653 284.00593,150.60653 285.7904,149.89274 L 290.07314,148.82206 L 293.64208,150.96342 L 289.35935,152.7479 L 280.79388,151.32032 C 279.36631,150.60653 279.00941,149.89274 279.36631,148.82206 C 280.08009,145.9669 282.57835,144.18243 286.86109,143.11175 C 291.85761,142.39796 295.78344,143.11175 298.6386,145.9669 C 300.06618,147.39448 300.06618,149.89274 298.99549,153.10479 C 297.56792,154.88926 295.06966,156.31684 291.85761,156.67373 L 284.00593,157.38752 L 284.00593,157.38752 z M 273.656,169.87882 L 272.94221,169.16503 C 272.22842,168.09435 272.58531,167.02367 273.656,166.66677 L 276.15426,165.2392 L 275.44047,163.45472 L 274.01289,163.09783 L 273.656,162.38404 L 275.08357,162.02715 L 279.36631,165.2392 L 278.65252,167.38056 L 273.656,169.87882 L 273.656,169.87882 z M 268.30258,158.10131 L 269.01637,157.03063 C 269.01637,154.17547 268.30258,152.03411 266.16122,149.89274 C 264.37675,148.10827 261.87849,147.39448 260.09401,147.39448 L 268.30258,158.10131 L 268.30258,158.10131 z M 235.11141,163.45472 L 233.68384,162.74094 L 235.11141,160.95646 L 237.60967,159.88578 L 236.53863,157.03063 L 235.11141,156.31684 L 234.39762,155.60305 L 234.04073,155.60305 L 234.04073,151.32032 L 232.96969,147.39448 C 233.32694,144.89622 234.39762,143.11175 236.53863,142.39796 C 239.75104,142.04107 244.03377,143.11175 248.3165,146.68069 L 248.3165,148.46516 L 247.60271,149.53585 L 242.60619,149.53585 L 237.96657,148.46516 L 237.96657,148.82206 L 239.03725,152.03411 L 240.82172,153.10479 L 245.81824,153.10479 L 247.60271,153.81858 L 247.60271,156.31684 L 241.17862,157.03063 L 240.82172,157.03063 L 241.89205,159.52889 L 249.03029,159.52889 L 250.81476,160.95646 L 250.45787,163.09783 L 248.3165,164.52541 L 235.11141,163.45472 L 235.11141,163.45472 z M 211.55603,161.31336 L 211.55603,162.74094 L 202.27714,164.52541 L 192.64099,161.67025 C 190.49963,160.59957 189.78584,158.8151 190.14273,157.03063 L 192.2841,154.53237 L 203.34782,153.46168 L 206.20262,152.7479 L 207.98709,150.60653 L 205.84608,148.82206 L 200.84956,147.39448 L 192.99789,148.82206 L 193.35478,149.89274 C 194.42546,150.60653 195.85304,150.60653 197.63751,149.89274 L 201.56335,148.82206 L 205.48919,150.96342 L 200.84956,152.7479 L 192.64099,151.32032 L 191.57031,148.82206 C 192.2841,145.9669 194.42546,144.18243 198.3513,143.11175 C 203.34782,142.39796 207.63055,143.11175 210.12881,145.9669 C 211.55603,147.39448 211.91328,149.89274 210.48571,153.10479 C 209.41502,154.88926 206.91676,156.31684 203.34782,156.67373 L 195.85304,157.38752 L 194.42546,157.74442 L 194.06857,158.10131 L 200.49267,159.52889 L 207.63055,159.88578 L 211.55603,161.31336 L 211.55603,161.31336 z"
       id="path2177"
       style="fill:#000000;fill-opacity:1;fill-rule:evenodd;stroke:none" /><path
       d="M 94.295734,132.3794 C 83.760228,131.99174 72.970807,130.41962 63.261508,126.39985 C 58.557067,113.42564 53.339019,100.54411 49.095142,87.45883 C 50.45189,85.708228 53.198788,87.807908 55.060252,87.745987 C 76.48674,92.950577 99.830165,94.863494 120.93179,87.310576 C 132.74993,83.00147 142.21999,71.741883 142.52726,58.944903 C 141.58952,45.71194 134.67346,33.56854 126.0218,23.858481 C 113.69371,10.599787 97.393373,1.4692172 80.277618,-4.0459775 C 88.584654,24.861925 98.295259,53.446625 106.55128,82.385292 C 105.27335,84.155416 102.41256,81.90245 100.56538,82.001916 C 93.597823,80.308131 86.562263,78.813244 79.68461,76.801145 C 74.956627,65.449801 71.144682,53.568147 66.81286,41.99899 C 60.659192,24.902826 54.495549,7.8102653 48.337409,-9.2842578 C 39.154665,-9.7702408 29.761661,-10.288309 20.795359,-7.9499728 C 18.783496,-9.6908675 20.515818,-13.898723 19.938791,-16.548627 C 20.207432,-26.276888 19.363606,-36.131346 20.515325,-45.787335 C 22.544969,-47.599752 26.029203,-46.847633 28.563534,-47.664992 C 37.564276,-48.801272 46.748905,-48.352585 55.770297,-47.630016 C 89.818777,-43.092177 119.71729,-23.012126 143.05438,1.3075798 C 151.62354,9.9966355 159.00668,19.914585 166.34652,29.492058 C 168.24425,28.79822 171.68909,29.034698 171.55184,26.246961 C 171.75803,18.417949 175.4014,9.754447 183.2638,6.9905862 C 189.0269,5.3877739 195.67969,5.8927079 200.71929,9.3143249 C 214.04004,17.913193 223.11355,31.612153 231.11352,45.00611 C 232.85183,47.268178 233.57378,50.760888 235.8276,52.471233 C 237.73847,51.778965 241.4478,51.875076 240.76935,48.830804 C 241.418,39.91819 244.73213,29.871115 253.5685,25.98343 C 260.24862,22.644577 268.09704,21.652304 275.39102,21.879717 C 279.82927,30.078293 283.87982,38.693792 288.02902,47.11764 C 287.58184,49.386702 284.57091,47.191945 283.03783,47.331812 C 276.64409,46.415629 268.63095,45.808694 264.2427,51.565221 C 259.27447,58.000275 261.52242,67.118068 264.57215,73.918439 C 270.31047,85.807516 283.87548,90.965888 296.27864,92.012587 C 298.99127,92.429868 303.7399,91.61233 302.3107,95.942172 C 302.20403,102.42423 302.51507,109.10875 301.30586,115.42917 C 287.7656,115.27617 275.0902,108.93912 264.1768,101.34519 C 259.5738,98.241463 255.84633,94.013729 252.6131,89.567326 C 251.04351,89.939888 248.22261,89.897025 247.6384,91.165142 C 248.63403,96.847613 250.31342,102.48226 250.9329,108.24714 C 249.81741,110.08268 246.86507,107.98796 245.13457,108.19771 C 239.61951,106.96364 233.87329,106.25242 228.53028,104.47494 C 226.4488,95.745202 225.63805,86.618629 223.43208,77.882749 C 220.054,64.130684 216.63736,49.840422 208.26908,38.156595 C 204.86561,32.967923 197.07099,29.955449 191.91187,34.417342 C 186.81507,38.775771 188.43146,46.20606 188.90605,52.05413 C 191.73244,67.700876 197.91445,82.543396 204.15095,97.095262 C 205.48905,100.72341 207.89407,104.2022 208.74678,107.93418 C 206.38643,108.93816 203.36865,107.34444 200.77592,107.33188 C 196.93527,106.50803 192.68635,106.60228 189.11154,105.18324 C 185.74913,96.385613 182.38352,87.589203 179.01389,78.794293 C 177.19522,79.386345 173.01154,77.994743 172.90258,80.985124 C 170.06493,91.144013 163.064,99.605406 155.83706,107.04465 C 141.50426,121.11964 122.68168,131.7528 102.20318,132.27365 C 99.57041,132.43112 96.931801,132.44382 94.295734,132.3794 z M 356.99944,119.33317 C 349.90738,112.11427 343.14139,104.57894 336.21107,97.194086 C 334.50644,98.709602 330.10347,99.204079 332.17535,102.18525 C 333.72538,107.57061 335.66099,112.79304 336.87001,118.246 C 335.7768,120.07476 332.77447,118.12636 331.00827,118.3925 C 326.46011,117.67678 321.8335,117.25808 317.35008,116.23632 C 312.9906,104.17769 309.52513,91.636028 305.50779,79.392912 C 300.84789,64.521162 296.15938,49.658299 291.52118,34.779732 C 292.45356,32.725163 295.9027,35.180311 297.80709,34.846365 C 303.79287,36.002095 310.04711,36.393858 315.85107,38.173083 C 318.53454,46.484188 319.82773,55.414933 322.32479,63.705444 C 324.0674,63.809301 326.73126,64.46306 327.88437,63.405225 C 331.01537,52.215732 338.29045,42.933304 346.14405,34.631479 C 350.42873,35.236843 354.5191,37.994351 358.72788,39.440915 C 362.1293,41.073813 365.95149,42.119014 369.09024,44.119656 C 367.49963,47.348515 363.96081,49.573965 361.72801,52.447 C 354.66064,60.21277 347.91639,68.731765 343.73908,78.36602 C 346.9396,81.867724 351.16454,84.853395 354.75001,88.134181 C 360.92856,93.638562 367.72997,98.663205 373.55431,104.42551 C 368.59801,109.65355 363.32104,114.86942 357.70773,119.44844 C 357.47033,119.5114 357.20901,119.4907 356.99944,119.33317 z M 415.31215,171.51811 C 393.25698,171.07834 371.18153,170.41773 349.175,168.91542 C 346.9184,167.11057 346.47739,163.54873 344.9977,161.05968 C 342.6083,155.42921 339.97617,149.80512 337.95725,144.07486 C 338.54809,142.03161 341.78244,143.52871 343.34214,142.92267 C 362.74865,142.17426 382.54972,142.18622 401.7223,141.14276 C 391.39977,112.19799 379.55509,83.834675 369.535,54.777377 C 368.20139,51.831143 372.21963,50.486936 373.67408,48.602534 C 375.57265,46.687939 379.02482,44.601892 379.94564,42.653606 C 375.884,40.419519 371.23103,39.229098 367.27828,36.888228 C 366.58805,34.959322 369.24256,33.702162 369.68325,32.127651 C 365.59267,30.24125 359.38289,30.520556 357.75713,25.324496 C 355.65102,19.734675 353.25876,14.219552 351.51408,8.5225549 C 352.52484,6.2910376 355.70784,8.3090251 357.50395,8.108272 C 369.10308,9.9915676 380.83898,11.544343 392.31652,13.876112 C 394.97764,16.807535 394.82706,21.406261 396.16452,25.012927 C 398.87949,36.125973 401.5472,47.250547 404.24265,58.368376 C 414.42581,58.211021 424.6034,57.793883 434.78263,57.478852 C 437.44681,61.208041 438.50832,66.25267 440.54533,70.492967 C 440.8372,74.600071 444.52249,74.192284 447.69071,74.439504 C 452.87556,74.918671 458.07748,75.231132 463.24716,75.862192 C 463.42318,69.655301 462.89755,63.291554 463.51069,57.182345 C 468.36067,57.827574 473.31804,59.234808 478.12184,60.493324 C 480.40907,60.728839 479.49538,64.263698 481.91052,63.919617 C 492.6318,65.094013 503.71109,63.566256 514.2616,65.397801 C 516.38426,70.330902 519.08581,75.293945 520.35739,80.556851 C 519.72772,82.507457 517.12403,80.594575 515.66776,80.863209 C 512.19782,80.57541 507.72968,79.577712 504.82378,79.914406 C 511.82868,96.622983 519.39638,113.09455 526.69926,129.67789 C 526.32794,131.76422 523.072,130.25849 521.51044,130.53447 C 516.03822,130.07668 510.53833,129.71487 505.10383,128.95311 C 502.71835,125.00764 501.78464,120.0299 499.90906,115.72843 C 495.96166,104.79436 491.99539,93.832391 488.0218,82.928878 C 486.48947,83.640525 483.37257,83.239768 482.78819,84.773415 C 483.3407,98.940155 484.91082,113.17638 485.30576,127.26814 C 478.18718,127.6821 470.6727,126.83166 463.40391,126.77366 C 459.4508,126.44646 455.2851,126.87445 451.46933,126.05395 C 438.29736,106.22058 425.24406,86.211413 411.86937,66.571698 C 410.10845,67.016281 408.20275,67.561901 406.81232,68.729588 C 413.1265,92.951183 419.44824,117.17082 425.77219,141.38984 C 437.8511,141.54134 450.06495,141.0893 462.06038,141.61429 C 469.20323,150.63412 476.34354,159.76094 483.31072,168.89897 C 482.96857,171.46507 478.3358,169.50116 476.37734,170.24314 C 456.02519,170.72873 435.67129,171.47878 415.31215,171.51811 z M 465.45448,111.95349 C 469.94582,112.15681 467.38167,107.17039 467.82868,104.39892 C 467.5709,98.580656 467.42111,92.756105 467.46408,86.931697 C 461.37529,86.973632 455.27917,86.80889 449.19609,87.129381 C 453.54335,95.699876 458.15456,104.20652 462.76946,112.67827 C 463.66444,112.43665 464.55946,112.19507 465.45448,111.95349 z M 572.1799,131.12749 C 562.08108,130.99836 551.98447,130.73904 541.88696,130.53447 C 538.83652,126.44618 537.0701,121.19466 534.50728,116.6646 C 535.07981,114.48715 538.77645,115.49966 540.56917,114.65496 C 541.77019,113.61947 539.15201,110.80236 538.95276,109.13341 C 536.59611,102.69433 533.03327,96.598679 531.36101,89.962658 C 531.12888,88.669023 533.36097,89.034483 532.34936,87.82122 C 528.98459,80.277117 524.40171,73.178204 521.2963,65.583351 C 523.28752,64.199814 526.49665,65.458045 528.89009,64.993547 C 537.68368,65.127311 546.66346,64.633227 555.3422,65.234058 C 557.47382,68.618344 559.77461,72.091033 561.53867,75.697485 C 560.10071,77.538989 556.90797,76.369089 554.81789,76.916422 C 550.38712,77.119352 545.94928,77.188054 541.52454,77.509438 C 543.9527,83.093335 546.84815,88.471303 549.51372,93.949024 C 554.2859,94.19778 559.30747,93.505512 563.92719,94.327867 C 565.31711,97.014782 567.43524,99.456795 568.40767,102.28411 C 565.26383,103.40562 561.35344,102.39757 557.91473,102.77827 C 556.06452,102.81089 553.1417,102.38276 555.31204,105.03502 C 557.36418,109.96077 559.48399,114.85778 561.5881,119.76144 C 566.89415,120.04474 572.39008,119.58117 577.58292,120.32151 C 577.75348,123.78064 578.62452,127.57057 577.92886,130.97923 C 576.13169,131.45273 574.04667,131.00782 572.1799,131.12749 z M 619.91726,132.89005 C 608.4182,131.75573 596.16106,129.65426 586.87342,122.29821 C 584.36724,120.28443 582.31067,117.47846 582.83759,114.07843 C 582.32816,113.49934 580.47994,113.93225 580.36677,112.49707 C 578.49793,105.06246 585.18856,99.136768 586.70868,92.268802 C 587.81726,88.189321 584.77638,84.044815 580.58091,83.900772 C 577.90631,83.273495 575.03088,83.981966 572.42698,83.307757 C 572.50635,78.006092 572.47627,72.395464 573.43185,67.181167 C 582.67331,64.383115 593.28845,64.12012 602.12697,68.466022 C 606.41617,70.382116 608.6924,75.068209 607.94796,79.650161 C 608.10777,85.790028 605.70894,91.556226 601.83746,96.201491 C 597.81755,102.1209 599.09648,111.91234 606.12979,115.01735 C 612.20735,118.23682 619.20779,118.3561 625.84738,119.46493 C 627.00236,121.57725 624.91842,124.22519 624.72727,126.49871 C 623.52379,128.85082 624.23347,134.33094 620.16848,132.90586 L 619.91726,132.89005 z"
       id="path6200"
       style="opacity:1;fill:url(#linearGradient7028);fill-opacity:1;fill-rule:nonzero;stroke:none;stroke-width:0.18462068;stroke-linecap:round;stroke-linejoin:miter;stroke-miterlimit:4;stroke-dasharray:none;stroke-opacity:1" /></g></svg>
