<svg xmlns="http://www.w3.org/2000/svg" width="15.031" height="15" viewBox="0 0 15.031 15">
  <defs>
    <style>
      .cls-1 {
        fill: #ff5f5f;
        fill-rule: evenodd;
      }
    </style>
  </defs>
  <path id="schiessen" class="cls-1" d="M734.855,6662.51l7.068-7.08a0.249,0.249,0,0,0-.354-0.35l-7.068,7.08-7.067-7.08a0.249,0.249,0,0,0-.354.35l7.068,7.08-7.068,7.08a0.247,0.247,0,0,0,0,.35,0.259,0.259,0,0,0,.354,0l7.067-7.06,7.068,7.06a0.242,0.242,0,0,0,.177.07,0.245,0.245,0,0,0,.177-0.42Z" transform="translate(-727 -6655)"/>
</svg>
