<svg xmlns="http://www.w3.org/2000/svg" width="18.969" height="19.03" viewBox="0 0 18.969 19.03">
  <defs>
    <style>
      .cls-1 {
        fill: #f9b119;
        fill-rule: evenodd;
      }
    </style>
  </defs>
  <path id="warnung" class="cls-1" d="M735.068,6551.69v6.34a0.413,0.413,0,0,0,.825,0v-6.34A0.413,0.413,0,1,0,735.068,6551.69Zm-0.377,9.11a0.791,0.791,0,1,0,1.58,0A0.79,0.79,0,0,0,734.691,6560.8Zm10.206,2.53-9.047-18.15a0.422,0.422,0,0,0-.738,0l-9.082,18.24a0.43,0.43,0,0,0,.018.41,0.4,0.4,0,0,0,.351.17h18.172a0.4,0.4,0,0,0,.412-0.42A0.484,0.484,0,0,0,744.9,6563.33Zm-17.83-.16,8.413-16.87,8.414,16.87H727.067Z" transform="translate(-726 -6544.97)"/>
</svg>
